<svg id="color" enable-background="new 0 0 24 24" height="512" viewBox="0 0 24 24" width="512" xmlns="http://www.w3.org/2000/svg"><path d="m5.233 12.794-5-4.75c-.149-.142-.233-.338-.233-.544s.084-.402.233-.544l5-4.75c.48-.454 1.267-.111 1.267.544v2.25h9.25c.689 0 1.25.561 1.25 1.25v2.5c0 .689-.561 1.25-1.25 1.25h-9.25v2.25c0 .66-.792.994-1.267.544z" fill="#2196f3"/><path d="m17 7.5h-17c0 .206.084.402.233.544l5 4.75c.151.142.333.206.511.206.386 0 .756-.299.756-.75v-2.25h9.25c.689 0 1.25-.561 1.25-1.25z" fill="#1d83d4"/><path d="m17.5 21.25v-2.25h-9.25c-.689 0-1.25-.561-1.25-1.25v-2.5c0-.689.561-1.25 1.25-1.25h9.25v-2.25c0-.658.791-.995 1.267-.544l5 4.75c.149.142.233.338.233.544s-.084.402-.233.544l-5 4.75c-.476.451-1.267.115-1.267-.544z" fill="#2196f3"/><path d="m24 16.5h-17v1.25c0 .689.561 1.25 1.25 1.25h9.25v2.25c0 .451.37.75.756.75.178 0 .36-.064.51-.206l5-4.75c.15-.142.234-.338.234-.544z" fill="#1d83d4"/></svg>