<svg id="Capa_1" enable-background="new 0 0 512.037 512.037" height="512" viewBox="0 0 512.037 512.037" width="512" xmlns="http://www.w3.org/2000/svg"><g><g><path d="m378.841 137.312v319.647c0 26.266 21.293 47.56 47.56 47.56 26.266 0 47.56-21.293 47.56-47.56v-310.24c0-5.196-4.212-9.407-9.407-9.407z" fill="#596c76"/><path d="m378.841 456.959v-436.897c0-6.927-5.616-12.543-12.543-12.543h-315.678c-6.927 0-12.543 5.616-12.543 12.543v436.897c0 26.266 21.293 47.56 47.56 47.56h340.763c-26.266 0-47.559-21.294-47.559-47.56z" fill="#b6c4cf"/><path d="m378.841 456.959v-436.897c0-6.927-5.616-12.543-12.543-12.543h-315.678c-6.927 0-12.543 5.616-12.543 12.543v436.897c0 26.266 21.293 47.56 47.56 47.56h340.763c-26.266 0-47.559-21.294-47.559-47.56z" fill="#b6c4cf"/><path d="m378.841 104.455v352.504c0 20.234 12.642 37.506 30.454 44.376 19.788-7.291 33.901-26.313 33.901-48.632v-338.841c0-5.196-4.212-9.407-9.407-9.407z" fill="#8d9ca8"/><path d="m329.243 170.419h-240.993c-6.927 0-12.543-5.616-12.543-12.543v-92.482c0-6.927 5.616-12.543 12.543-12.543h240.994c6.927 0 12.543 5.616 12.543 12.543v92.482c0 6.927-5.616 12.543-12.544 12.543z" fill="#f5f8f9"/><path d="m113.336 119.201v-15.132c0-7.505 6.084-13.588 13.588-13.588h163.644c7.505 0 13.589 6.084 13.589 13.588v15.132c0 7.505-6.084 13.588-13.589 13.588h-163.643c-7.505 0-13.589-6.084-13.589-13.588z" fill="#7a8c98"/><path d="m329.243 459.46h-240.993c-6.927 0-12.543-5.616-12.543-12.543v-104.831c0-6.927 5.616-12.543 12.543-12.543h240.994c6.927 0 12.543 5.616 12.543 12.543v104.831c0 6.927-5.616 12.543-12.544 12.543z" fill="#ffe177"/><path d="m378.841 456.959v-436.897c0-6.927-5.616-12.543-12.543-12.543h-37.155c6.927 0 12.543 5.616 12.543 12.543v436.897c0 26.266 21.293 47.56 47.56 47.56h37.154c-26.266 0-47.559-21.294-47.559-47.56z" fill="#9facba"/><path d="m378.841 104.455v352.504c0 20.234 12.642 37.506 30.454 44.376 19.788-7.291 33.901-26.313 33.901-48.632v-338.841c0-5.196-4.212-9.407-9.407-9.407z" fill="#8d9ca8"/><path d="m407.188 456.959v-352.504h-28.347v352.504c0 20.234 12.642 37.506 30.454 44.376 5.311-1.957 10.208-4.766 14.539-8.25-10.185-8.722-16.646-21.666-16.646-36.126z" fill="#7a8c98"/></g><g><path d="m89.871 216.867h237.275c4.143 0 7.5-3.357 7.5-7.5s-3.357-7.5-7.5-7.5h-237.275c-4.143 0-7.5 3.357-7.5 7.5s3.358 7.5 7.5 7.5z"/><path d="m89.871 257.229h237.275c4.143 0 7.5-3.357 7.5-7.5s-3.357-7.5-7.5-7.5h-237.275c-4.143 0-7.5 3.357-7.5 7.5s3.358 7.5 7.5 7.5z"/><path d="m89.871 297.589h237.275c4.143 0 7.5-3.357 7.5-7.5s-3.357-7.5-7.5-7.5h-237.275c-4.143 0-7.5 3.357-7.5 7.5s3.358 7.5 7.5 7.5z"/><path d="m349.287 65.375c0-11.052-8.991-20.043-20.044-20.043h-240.993c-11.052 0-20.043 8.991-20.043 20.043v92.482c0 11.052 8.991 20.043 20.043 20.043h240.993c11.053 0 20.044-8.991 20.044-20.043zm-15 92.482c0 2.78-2.263 5.043-5.044 5.043h-240.993c-2.78 0-5.043-2.263-5.043-5.043v-92.482c0-2.78 2.263-5.043 5.043-5.043h240.993c2.781 0 5.044 2.263 5.044 5.043z"/><path d="m290.568 82.962h-163.643c-11.629 0-21.089 9.46-21.089 21.088v15.133c0 11.628 9.46 21.088 21.089 21.088h163.644c11.629 0 21.089-9.46 21.089-21.088v-15.133c-.001-11.628-9.461-21.088-21.09-21.088zm6.089 36.221c0 3.356-2.731 6.088-6.089 6.088h-163.643c-3.357 0-6.089-2.731-6.089-6.088v-15.133c0-3.356 2.731-6.088 6.089-6.088h163.644c3.357 0 6.089 2.731 6.089 6.088v15.133z"/><path d="m68.207 342.067v104.831c0 11.052 8.991 20.043 20.043 20.043h240.993c11.053 0 20.044-8.991 20.044-20.043v-104.831c0-11.052-8.991-20.043-20.044-20.043h-240.993c-11.052 0-20.043 8.992-20.043 20.043zm15 0c0-2.78 2.263-5.043 5.043-5.043h240.993c2.781 0 5.044 2.263 5.044 5.043v104.831c0 2.78-2.263 5.043-5.044 5.043h-240.993c-2.78 0-5.043-2.263-5.043-5.043z"/><path d="m464.553 129.793h-13.856v-15.949c0-9.322-7.585-16.907-16.907-16.907h-47.448v-76.894c-.001-11.052-8.992-20.043-20.044-20.043h-250.393c-4.143 0-7.5 3.357-7.5 7.5s3.357 7.5 7.5 7.5h250.393c2.78 0 5.043 2.263 5.043 5.043v84.394 352.503c0 14.985 6.129 29.508 17.324 40.06h-303.028c-22.089 0-40.06-17.971-40.06-40.06v-436.897c0-2.78 2.263-5.043 5.043-5.043h30.285c4.143 0 7.5-3.357 7.5-7.5s-3.357-7.5-7.5-7.5h-30.285c-11.052 0-20.043 8.991-20.043 20.043v436.897c0 30.36 24.699 55.06 55.06 55.06 1.537 0 340.618.037 340.618.037 30.44 0 55.205-24.716 55.205-55.097v-53.73c0-4.143-3.357-7.5-7.5-7.5s-7.5 3.357-7.5 7.5v53.73c0 22.716-17.557 37.492-35.383 39.784.011-.01.022-.021.033-.032 12.03-10.906 19.586-26.851 19.586-44.005 0-.001 0-.001 0-.002v-.001-307.891h13.856c1.052 0 1.907.856 1.907 1.908v221.509c0 4.143 3.357 7.5 7.5 7.5s7.5-3.357 7.5-7.5v-221.509c.001-9.323-7.584-16.908-16.906-16.908zm-30.764-17.856c1.052 0 1.907.855 1.907 1.907v23.449 315.392c0 6.513-1.448 12.805-4.08 18.504-.023.051-.045.103-.069.154-.055.119-.116.235-.172.353-4.486 9.403-12.214 17.14-21.999 21.497-14.228-6.731-23.036-21.139-23.036-36.252v-345.004z"/></g></g></svg>